<?xml version="1.0"?>
<svg xmlns="http://www.w3.org/2000/svg" xmlns:xlink="http://www.w3.org/1999/xlink" xmlns:svgjs="http://svgjs.com/svgjs" version="1.1" width="512" height="512" x="0" y="0" viewBox="0 0 24 24" style="enable-background:new 0 0 512 512" xml:space="preserve" class=""><g><path xmlns="http://www.w3.org/2000/svg" d="m4.996 19.754c-.192 0-.384-.073-.53-.22-.293-.293-.293-.768 0-1.061l13.098-13.098c.293-.293.768-.293 1.061 0s.293.768 0 1.061l-13.099 13.099c-.146.146-.338.219-.53.219z" fill="#13133d" data-original="#000000" style="" class=""/><path xmlns="http://www.w3.org/2000/svg" d="m.75 24c-.197 0-.389-.078-.53-.22-.178-.177-.254-.432-.205-.677l1.415-7.071c.029-.146.101-.279.205-.383l14.569-14.57c1.39-1.391 3.817-1.392 5.211 0l1.506 1.506c1.437 1.437 1.437 3.774 0 5.211l-14.569 14.569c-.104.105-.238.176-.383.205l-7.071 1.415c-.049.01-.099.015-.148.015zm2.105-7.452-1.149 5.746 5.745-1.15 14.409-14.408c.852-.852.852-2.238 0-3.09l-1.506-1.506c-.828-.826-2.268-.825-3.09 0zm4.966 5.287h.01z" fill="#13133d" data-original="#000000" style="" class=""/><path xmlns="http://www.w3.org/2000/svg" d="m7.821 22.585c-.192 0-.384-.073-.53-.22l-5.656-5.656c-.293-.293-.293-.768 0-1.061s.768-.293 1.061 0l5.656 5.656c.293.293.293.768 0 1.061-.147.147-.338.22-.531.22z" fill="#13133d" data-original="#000000" style="" class=""/><path xmlns="http://www.w3.org/2000/svg" d="m20.923 9.483c-.192 0-.384-.073-.53-.22l-5.656-5.656c-.293-.293-.293-.768 0-1.061s.768-.293 1.061 0l5.656 5.656c.293.293.293.768 0 1.061-.147.147-.339.22-.531.22z" fill="#13133d" data-original="#000000" style="" class=""/></g></svg>
